HIERARCHY
ROOT Hips
{
	OFFSET 0.000000 0.000000 0.000000
	CHANNELS 6 Xposition Yposition Zposition Zrotation Yrotation Xrotation 
	JOINT LeftUpLeg_virtual
	{
		OFFSET 0.000000 0.000000 0.000000
		CHANNELS 3 Zrotation Yrotation Xrotation
		JOINT LeftUpLeg
		{
			OFFSET 10.205400 -3.823500 0.155100
			CHANNELS 3 Zrotation Yrotation Xrotation
			JOINT LeftLeg
			{
				OFFSET 0.708757 -12.982077 0.567790
				CHANNELS 3 Zrotation Yrotation Xrotation
				JOINT LeftFoot
				{
					OFFSET -0.708756 -10.717838 -2.184338
					CHANNELS 3 Zrotation Yrotation Xrotation
					JOINT LeftToeBase
					{
						OFFSET 0.108149 -7.191104 7.560241
						CHANNELS 3 Zrotation Yrotation Xrotation
						End Site
						{
							OFFSET 0.000000 0.000000 0.000000
						}
					}
				}
			}
		}
	}
	JOINT RightUpLeg_virtual
	{
		OFFSET 0.000000 0.000000 0.000000
		CHANNELS 3 Zrotation Yrotation Xrotation
		JOINT RightUpLeg
		{
			OFFSET -10.205400 -3.823500 0.005500
			CHANNELS 3 Zrotation Yrotation Xrotation
			JOINT RightLeg
			{
				OFFSET -0.708756 -12.982134 0.610632
				CHANNELS 3 Zrotation Yrotation Xrotation
				JOINT RightFoot
				{
					OFFSET 0.708754 -10.717769 -1.945823
					CHANNELS 3 Zrotation Yrotation Xrotation
					JOINT RightToeBase
					{
						OFFSET -0.108140 -7.191069 7.372968
						CHANNELS 3 Zrotation Yrotation Xrotation
						End Site
						{
							OFFSET 0.000000 0.000000 0.000000
						}
					}
				}
			}
		}
	}
	JOINT Spine_virtual
	{
		OFFSET 0.000000 0.000000 0.000000
		CHANNELS 3 Zrotation Yrotation Xrotation
		JOINT Spine
		{
			OFFSET 0.000000 6.876099 0.125700
			CHANNELS 3 Zrotation Yrotation Xrotation
			JOINT Spine1
			{
				OFFSET 0.000000 8.022060 0.146608
				CHANNELS 3 Zrotation Yrotation Xrotation
				JOINT Spine2
				{
					OFFSET 0.000000 9.168068 0.167552
					CHANNELS 3 Zrotation Yrotation Xrotation
					JOINT Neck_virtual
					{
						OFFSET 0.000000 0.000000 0.000000
						CHANNELS 3 Zrotation Yrotation Xrotation
						JOINT Neck
						{
							OFFSET 0.000000 10.314075 0.188496
							CHANNELS 3 Zrotation Yrotation Xrotation
							JOINT Head
							{
								OFFSET 0.000000 7.643700 -2.377400
								CHANNELS 3 Zrotation Yrotation Xrotation
								End Site
								{
									OFFSET 0.000000 0.000000 0.000000
								}
							}
						}
					}
					JOINT LeftShoulder_virtual
					{
						OFFSET 0.000000 0.000000 0.000000
						CHANNELS 3 Zrotation Yrotation Xrotation
						JOINT LeftShoulder
						{
							OFFSET 4.392200 8.824978 0.174984
							CHANNELS 3 Zrotation Yrotation Xrotation
							JOINT LeftArm
							{
								OFFSET 8.771219 -2.981674 -0.026999
								CHANNELS 3 Zrotation Yrotation Xrotation
								JOINT LeftForeArm
								{
									OFFSET 8.512804 0.000000 -0.000000
									CHANNELS 3 Zrotation Yrotation Xrotation
									JOINT LeftHand
									{
										OFFSET 18.484802 0.000000 -0.000000
										CHANNELS 3 Zrotation Yrotation Xrotation
										End Site
										{
											OFFSET 0.000000 0.000000 0.000000
										}
									}
								}
							}
						}
					}
					JOINT RightShoulder_virtual
					{
						OFFSET 0.000000 0.000000 0.000000
						CHANNELS 3 Zrotation Yrotation Xrotation
						JOINT RightShoulder
						{
							OFFSET -4.392200 8.824993 0.141379
							CHANNELS 3 Zrotation Yrotation Xrotation
							JOINT RightArm
							{
								OFFSET -8.771282 -2.981682 -0.094208
								CHANNELS 3 Zrotation Yrotation Xrotation
								JOINT RightForeArm
								{
									OFFSET -8.494598 0.000000 0.000000
									CHANNELS 3 Zrotation Yrotation Xrotation
									JOINT RightHand
									{
										OFFSET -18.483803 0.000000 0.000001
										CHANNELS 3 Zrotation Yrotation Xrotation
										End Site
										{
											OFFSET 0.000000 0.000000 0.000000
										}
									}
								}
							}
						}
					}
				}
			}
		}
	}
}
MOTION
Frames: 14
Frame Time: 0.033333
1.907585 36.438408 2.762299 179.831846 4.590548 179.776863 -2.493897 -2.016130 9.979372 -8.459368 -0.407432 -17.742946 8.207903 6.348973 12.943816 -7.203739 0.233192 11.235064 0.000000 0.000000 0.000000 2.793639 -1.179082 7.888116 3.357505 -1.430854 -7.850033 -6.824715 -0.183018 10.816013 7.892998 7.223636 10.327629 0.000000 0.000000 0.000000 1.796626 1.092064 -1.034447 -5.676277 0.863317 -6.731946 1.516509 -4.022899 3.341533 -0.027705 0.048855 -0.042403 1.069336 -2.325380 5.943782 0.235678 1.719042 1.001679 0.000000 0.000000 0.000000 2.511510 -1.259540 3.276435 0.949083 -0.010548 -5.284502 -12.052207 25.396955 -33.369541 -4.593414 -28.113221 -5.350620 0.000000 0.000000 0.000000 -0.911374 -0.555493 2.755341 6.956407 -6.224093 -8.375540 17.330037 -27.841793 -37.634889 -1.354641 33.689915 -3.236097 0.000000 0.000000 0.000000 
1.918478 36.432671 2.697099 179.761140 4.652368 179.659233 -2.555906 -1.985365 10.025835 -8.490632 -0.264884 -17.648992 8.135969 6.514073 12.940682 -7.243539 0.213479 11.071074 0.000000 0.000000 0.000000 2.852596 -1.372694 7.766460 3.371362 -1.458613 -7.944955 -6.699189 -0.191351 10.596082 8.080767 7.366520 9.981767 0.000000 0.000000 0.000000 1.740968 1.086817 -1.029166 -5.691922 0.888241 -6.698667 1.535896 -4.018096 3.334347 0.036329 0.049497 -0.037670 0.996801 -2.282177 5.957394 0.213501 1.691746 1.110636 0.000000 0.000000 0.000000 2.454921 -1.227577 3.232211 0.938158 0.007880 -5.312344 -11.927829 25.460669 -33.206447 -4.625152 -28.072390 -5.296465 0.000000 0.000000 0.000000 -0.995048 -0.504986 2.784087 6.960687 -6.202057 -8.384245 17.401201 -27.813690 -37.615409 -1.383826 33.669882 -3.269692 0.000000 0.000000 0.000000 
1.924839 36.431366 2.609369 179.771426 4.871929 179.643237 -2.541908 -1.793457 10.082539 -8.494563 -0.132241 -17.545381 8.138392 6.463604 13.074673 -7.275562 0.193534 10.918401 0.000000 0.000000 0.000000 2.887043 -1.239707 7.758455 3.354563 -1.435987 -7.873918 -6.683212 -0.032392 10.657546 8.117069 7.391726 10.022011 0.000000 0.000000 0.000000 1.777622 1.108558 -1.111319 -5.687714 0.928887 -6.722165 1.514042 -3.982498 3.348778 -0.001417 0.088551 -0.026659 1.056739 -2.232881 5.943094 0.253167 1.747159 1.116689 0.000000 0.000000 0.000000 2.494186 -1.245062 3.192568 0.935154 0.026158 -5.113340 -11.994143 25.585453 -33.281507 -4.577560 -28.067576 -5.311512 0.000000 0.000000 0.000000 -0.966884 -0.491359 2.785599 7.019581 -6.209634 -8.367272 17.490130 -27.886595 -37.786478 -1.387688 33.599429 -3.280743 0.000000 0.000000 0.000000 
1.931069 36.427155 2.528111 179.719776 4.812754 179.716033 -2.616737 -1.875163 10.045155 -8.483040 -0.068050 -17.516770 8.114697 6.523159 13.272762 -7.286351 0.168232 10.711652 0.000000 0.000000 0.000000 2.832014 -1.238353 7.758176 3.353267 -1.453016 -7.836723 -6.710155 0.082115 10.713141 8.088263 7.289228 9.954360 0.000000 0.000000 0.000000 1.691856 1.000793 -1.249132 -5.684541 0.785049 -6.777002 1.531676 -3.897828 3.390604 0.004112 0.161572 -0.045511 1.126836 -2.099658 5.923301 0.293664 1.788472 1.046689 0.000000 0.000000 0.000000 2.505678 -1.201062 3.202937 0.934257 0.112287 -5.262830 -11.968186 25.704976 -33.380572 -4.702518 -28.096470 -5.144033 0.000000 0.000000 0.000000 -0.952853 -0.539738 2.814867 7.030122 -6.246920 -8.657074 17.569017 -27.956067 -37.804018 -1.394698 33.603148 -3.319147 0.000000 0.000000 0.000000 
1.928692 36.419128 2.465537 179.857691 4.809021 179.749064 -2.451862 -1.924314 10.043249 -8.440052 -0.205731 -17.475630 8.159842 6.742601 13.521881 -7.350909 0.077118 10.450015 0.000000 0.000000 0.000000 2.958993 -1.214549 7.778305 3.409883 -1.431191 -7.801362 -6.728897 0.130755 10.794588 8.075126 7.251349 9.930663 0.000000 0.000000 0.000000 1.802498 1.105309 -1.267553 -5.643908 0.898076 -6.833439 1.539723 -4.008648 3.372310 0.035475 0.067106 -0.059803 1.014567 -2.157401 5.908802 0.240315 1.770342 1.098674 0.000000 0.000000 0.000000 2.464132 -1.238006 3.205295 0.963887 0.110025 -5.263366 -11.937170 25.813607 -33.242408 -4.652087 -28.112681 -5.139725 0.000000 0.000000 0.000000 -1.032594 -0.546980 2.767913 7.105628 -6.287438 -8.619801 17.770320 -28.038818 -38.028789 -1.404419 33.603035 -3.347163 0.000000 0.000000 0.000000 
1.929058 36.416492 2.425401 179.700938 5.014083 179.780401 -2.637660 -1.821564 10.057235 -8.427932 -0.044649 -17.505251 8.113653 6.647074 13.661157 -7.310340 0.111378 10.271304 0.000000 0.000000 0.000000 2.813438 -1.088069 7.743611 3.337224 -1.525496 -7.815283 -6.708587 0.213040 10.893213 8.128955 7.215174 9.919770 0.000000 0.000000 0.000000 1.699545 1.128046 -1.279353 -5.685521 0.912856 -6.867963 1.492241 -3.992580 3.366886 -0.009586 0.088402 -0.062940 1.086734 -2.237316 5.894931 0.241464 1.812222 1.060982 0.000000 0.000000 0.000000 2.533700 -1.228717 3.179353 0.943049 0.158447 -5.280595 -11.955234 25.963280 -33.415044 -4.750412 -28.140439 -4.986424 0.000000 0.000000 0.000000 -0.927955 -0.504602 2.752754 7.134946 -6.222085 -8.468124 17.949522 -28.235722 -38.239507 -1.484425 33.647383 -3.456532 0.000000 0.000000 0.000000 
1.927710 36.411297 2.401718 179.841189 5.003440 179.778434 -2.524125 -1.988016 10.095149 -8.432202 -0.114602 -17.468871 8.205432 6.706747 13.868979 -7.308656 0.067472 10.049140 0.000000 0.000000 0.000000 2.925586 -1.184113 7.747634 3.392802 -1.417669 -7.812371 -6.716318 0.303314 10.918349 8.151611 7.181850 9.975615 0.000000 0.000000 0.000000 1.770969 0.942389 -1.245202 -5.611465 0.947803 -6.895078 1.517955 -3.948132 3.343640 0.033565 0.105597 -0.040750 1.005636 -2.188790 5.811808 0.249423 1.857120 1.095706 0.000000 0.000000 0.000000 2.446083 -1.226025 3.148674 0.965453 0.150565 -5.300280 -11.904558 26.041155 -33.250133 -4.769480 -28.164188 -4.890202 0.000000 0.000000 0.000000 -1.013532 -0.524040 2.677313 7.170917 -6.202132 -8.585072 18.108389 -28.427773 -38.359804 -1.420959 33.789127 -3.392149 0.000000 0.000000 0.000000 
1.928825 36.408749 2.379800 179.786753 5.114726 179.740403 -2.618489 -2.010729 10.117592 -8.448761 -0.024650 -17.553000 8.250347 6.526424 14.182002 -7.226977 0.107789 9.778498 0.000000 0.000000 0.000000 2.842082 -1.231437 7.762460 3.374197 -1.460598 -7.827228 -6.709524 0.374582 10.993968 8.215353 7.141631 10.011287 0.000000 0.000000 0.000000 1.700844 0.913229 -1.209651 -5.591599 0.958381 -6.891848 1.504829 -3.921513 3.321024 0.018636 0.119317 -0.052361 1.021970 -2.212768 5.793875 0.240610 1.868666 1.130745 0.000000 0.000000 0.000000 2.464494 -1.258125 3.125383 0.995977 0.087626 -5.247417 -11.965831 26.178314 -33.194067 -4.726002 -28.228376 -4.862819 0.000000 0.000000 0.000000 -1.010606 -0.550865 2.647436 7.211627 -6.144454 -8.555620 18.288019 -28.598403 -38.484277 -1.471511 33.886751 -3.506687 0.000000 0.000000 0.000000 
1.927488 36.406609 2.354970 179.801383 5.338802 179.766713 -2.638731 -1.925332 10.048134 -8.464907 -0.070963 -17.534400 8.354029 6.431326 14.385119 -7.168606 0.161632 9.676614 0.000000 0.000000 0.000000 2.840493 -1.165056 7.741937 3.382475 -1.470496 -7.889954 -6.685407 0.451515 11.073045 8.328638 7.128818 10.126491 0.000000 0.000000 0.000000 1.664861 1.028975 -1.222140 -5.547871 0.922327 -6.883725 1.469426 -3.957440 3.325994 -0.009532 0.074010 -0.020758 1.058738 -2.194636 5.693609 0.281411 1.923888 1.149152 0.000000 0.000000 0.000000 2.497086 -1.185768 3.029974 0.991954 0.038920 -5.144048 -11.897839 26.291710 -33.033377 -4.745071 -28.249422 -4.717251 0.000000 0.000000 0.000000 -0.971619 -0.537503 2.628549 7.248293 -5.990209 -8.775784 18.450325 -28.807767 -38.600534 -1.337895 34.034648 -3.351401 0.000000 0.000000 0.000000 
1.927743 36.402935 2.331260 179.785428 5.425052 179.742152 -2.692920 -2.106640 10.071476 -8.481483 0.000311 -17.478102 8.431264 6.262487 14.568619 -7.099573 0.232390 9.386098 0.000000 0.000000 0.000000 2.818812 -1.225399 7.776205 3.396353 -1.502808 -7.952768 -6.695144 0.525641 11.175281 8.423064 7.082831 10.134324 0.000000 0.000000 0.000000 1.588037 1.047313 -1.200644 -5.463625 0.942266 -6.854427 1.505687 -3.911848 3.308450 0.058111 0.085179 -0.087905 1.032949 -2.075484 5.708019 0.243335 1.896742 1.219714 0.000000 0.000000 0.000000 2.419438 -1.241311 3.082408 0.969488 -0.169166 -5.198851 -11.964524 26.387924 -32.947507 -4.736489 -28.308648 -4.613123 0.000000 0.000000 0.000000 -1.040451 -0.542769 2.579323 7.300982 -5.837585 -8.606283 18.694076 -29.075661 -38.607050 -1.402322 34.120845 -3.443843 0.000000 0.000000 0.000000 
1.929153 36.399849 2.313163 179.767109 5.624181 179.720199 -2.791939 -2.037213 10.055743 -8.507573 0.151624 -17.525842 8.468708 6.082575 14.862867 -7.091334 0.309211 9.126432 0.000000 0.000000 0.000000 2.766108 -1.192935 7.811825 3.422351 -1.470702 -8.022819 -6.721412 0.614099 11.303158 8.516008 7.011864 10.158678 0.000000 0.000000 0.000000 1.498171 1.071236 -1.220274 -5.355700 0.928431 -6.806206 1.496288 -3.891953 3.302685 0.011037 0.077927 -0.051105 1.075833 -2.163983 5.640944 0.292196 1.910351 1.431388 0.000000 0.000000 0.000000 2.484020 -1.188921 2.999260 0.959885 -0.307521 -5.083553 -12.142860 26.618647 -32.971789 -4.691060 -28.356944 -4.498751 0.000000 0.000000 0.000000 -0.983659 -0.503919 2.525762 7.352697 -5.619857 -8.563225 19.058685 -29.254858 -38.925187 -1.339440 34.211468 -3.329984 0.000000 0.000000 0.000000 
1.936954 36.397552 2.303139 179.704312 5.992497 179.778038 -2.871552 -1.934211 10.103519 -8.509334 0.157845 -17.508150 8.454114 5.869642 14.763932 -6.991628 0.490145 9.020986 0.000000 0.000000 0.000000 2.690273 -0.962334 7.775660 3.440069 -1.345820 -8.157132 -6.775717 0.720284 11.414853 8.569169 6.872045 10.184496 0.000000 0.000000 0.000000 1.279613 1.178583 -1.266798 -5.176078 0.935431 -6.826515 1.549645 -3.856757 3.288563 0.036711 0.112342 -0.068185 1.048127 -1.915054 5.583183 0.235040 1.774118 1.528582 0.000000 0.000000 0.000000 2.431858 -1.103088 3.016883 0.951670 -0.426495 -5.195700 -12.373590 26.850194 -32.992812 -4.713062 -28.510630 -4.287055 0.000000 0.000000 0.000000 -1.023717 -0.468933 2.537812 7.389146 -5.364475 -8.593105 19.513089 -29.545353 -39.275275 -1.351677 34.393964 -3.286515 0.000000 0.000000 0.000000 
1.933336 36.390205 2.318761 179.795482 5.832057 179.701198 -2.769758 -2.125584 10.082213 -8.605861 0.148062 -17.507918 8.680008 5.746503 15.008562 -6.921677 0.389391 8.894288 0.000000 0.000000 0.000000 2.733568 -1.207098 7.880813 3.512583 -1.381575 -8.234294 -6.784580 0.683448 11.481825 8.704447 6.832742 10.082118 0.000000 0.000000 0.000000 1.327532 1.095503 -1.162812 -5.085945 0.799002 -6.712102 1.520690 -3.862298 3.156185 0.005774 0.019228 -0.030657 1.104411 -2.036460 5.492240 0.282274 1.732761 1.853526 0.000000 0.000000 0.000000 2.496489 -1.064340 2.953605 0.855886 -0.626622 -5.036596 -12.565169 27.218234 -32.663658 -4.590258 -28.585735 -4.212615 0.000000 0.000000 0.000000 -0.964214 -0.410274 2.525797 7.465916 -5.064166 -8.391995 20.036059 -29.803216 -39.909465 -1.362324 34.415397 -3.181114 0.000000 0.000000 0.000000 
1.935635 36.384491 2.343783 179.815945 6.083320 179.755990 -2.784639 -2.018713 10.120119 -8.573603 0.014125 -17.591635 8.711303 6.022132 14.956974 -6.926537 0.322374 8.842522 0.000000 0.000000 0.000000 2.735673 -1.053469 7.857544 3.565386 -1.216139 -8.392352 -6.829582 0.732340 11.477521 8.773941 6.695993 10.099623 0.000000 0.000000 0.000000 1.250077 1.188902 -1.216307 -4.929731 0.767496 -6.765681 1.572743 -3.816100 3.280282 0.026734 0.048567 -0.054334 1.111904 -2.021999 5.472438 0.235506 1.588110 2.135874 0.000000 0.000000 0.000000 2.500758 -1.000305 2.894270 0.780501 -0.821620 -5.061017 -12.912380 27.494404 -32.669901 -4.608025 -28.734538 -3.947744 0.000000 0.000000 0.000000 -0.946969 -0.370025 2.478994 7.507466 -4.785274 -8.263188 20.558378 -30.113614 -40.623015 -1.434849 34.511143 -3.110507 0.000000 0.000000 0.000000 
